<svg xmlns="http://www.w3.org/2000/svg" width="800" height="600" viewBox="0 0 800 600">
  <defs>
    <linearGradient id="bg" x1="0" y1="0" x2="1" y2="1">
      <stop offset="0%" stop-color="#0f0f1a"/>
      <stop offset="100%" stop-color="#1a1a2e"/>
    </linearGradient>
    <linearGradient id="accent" x1="0" y1="0" x2="1" y2="0">
      <stop offset="0%" stop-color="#4f46e5"/>
      <stop offset="100%" stop-color="#06b6d4"/>
    </linearGradient>
  </defs>
  <rect width="800" height="600" fill="url(#bg)"/>
  <g opacity="0.08" stroke="#ffffff" stroke-width="1">
    <line x1="0" y1="150" x2="800" y2="150"/>
    <line x1="0" y1="300" x2="800" y2="300"/>
    <line x1="0" y1="450" x2="800" y2="450"/>
    <line x1="200" y1="0" x2="200" y2="600"/>
    <line x1="400" y1="0" x2="400" y2="600"/>
    <line x1="600" y1="0" x2="600" y2="600"/>
  </g>

  <!-- kanban columns -->
  <g transform="translate(120,150)">
    <rect x="0" y="0" width="150" height="280" rx="12" fill="#ffffff" opacity="0.04"/>
    <rect x="20" y="24" width="110" height="16" rx="4" fill="url(#accent)" opacity="0.7"/>
    <rect x="20" y="60" width="110" height="60" rx="8" fill="#ffffff" opacity="0.06"/>
    <rect x="20" y="132" width="110" height="60" rx="8" fill="#ffffff" opacity="0.06"/>
    <rect x="20" y="204" width="110" height="60" rx="8" fill="#ffffff" opacity="0.06"/>
  </g>
  <g transform="translate(325,150)">
    <rect x="0" y="0" width="150" height="280" rx="12" fill="#ffffff" opacity="0.06"/>
    <rect x="20" y="24" width="110" height="16" rx="4" fill="url(#accent)" opacity="0.9"/>
    <rect x="20" y="60" width="110" height="60" rx="8" fill="#ffffff" opacity="0.1"/>
    <rect x="20" y="132" width="110" height="60" rx="8" fill="#ffffff" opacity="0.1"/>
  </g>
  <g transform="translate(530,150)">
    <rect x="0" y="0" width="150" height="280" rx="12" fill="#ffffff" opacity="0.04"/>
    <rect x="20" y="24" width="110" height="16" rx="4" fill="url(#accent)" opacity="0.6"/>
    <rect x="20" y="60" width="110" height="60" rx="8" fill="#ffffff" opacity="0.06"/>
  </g>

  <text x="120" y="90" font-family="Arial, sans-serif" font-size="34" font-weight="700" fill="#ffffff">IB4G BugTracker</text>
  <rect x="120" y="105" width="160" height="4" rx="2" fill="url(#accent)"/>
  <text x="120" y="560" font-family="Arial, sans-serif" font-size="16" fill="#9ca3af">Next.js · Prisma · TanStack Query · shadcn/ui</text>
</svg>
